# xmcd
#
# Track frame offsets:
#	150
#	14478
#	25918
#	41868
#	61644
#	75922
#	91209
#	105667
#	119206
#	134252
#	151335
#	165313
#
# Disc length: 2395 seconds
#
# Revision: 0
# Processed by: cddbd v1.5.1PL0 Copyright (c) Steve Scherf et al.
# Submitted via: dBpowerAMP V4.0
#
DISCID=8d09590c
DTITLE=Rosanne Cash - Retrospective - Hits 1979-1989
DYEAR=1989
DGENRE=Country
TTITLE0=Seven Year Ache
TTITLE1=I Don't Want To Spoil The Party
TTITLE2=Hold On
TTITLE3=Blue Moon With Heartache
TTITLE4=My baby Thinks He's A Train
TTITLE5=No Memories Hangin' Around
TTITLE6=I Don't Know Why You Don't Want Me
TTITLE7=I Wonder
TTITLE8=Never Be You
TTITLE9=The Way We Make A Broken Heart
TTITLE10=Tennessee Flat Top Box
TTITLE11=Black And White
EXTD=Rosanne Cash - Retrospective Hits 1979-1989
EXTT0=
EXTT1=
EXTT2=
EXTT3=
EXTT4=
EXTT5=
EXTT6=
EXTT7=
EXTT8=
EXTT9=
EXTT10=
EXTT11=
PLAYORDER=
